<?xml version="1.0" encoding="UTF-8"?>
<svg version="1.1" xmlns="http://www.w3.org/2000/svg" width="225" height="225">
<path d="M0 0 C74.25 0 148.5 0 225 0 C225 74.25 225 148.5 225 225 C150.75 225 76.5 225 0 225 C0 150.75 0 76.5 0 0 Z " fill="#FEFEFE" transform="translate(0,0)"/>
<path d="M0 0 C1.06831558 -0.0112793 2.13663116 -0.02255859 3.23731995 -0.03417969 C4.98763771 -0.0220343 4.98763771 -0.0220343 6.77331543 -0.00964355 C8.00617783 -0.01665283 9.23904022 -0.02366211 10.50926208 -0.03088379 C13.88763011 -0.04547371 17.26501838 -0.04205322 20.64333153 -0.02936745 C24.17955207 -0.01923622 27.71573092 -0.02863345 31.25195312 -0.03491211 C37.19030265 -0.0421882 43.12845315 -0.03260199 49.06677246 -0.0135498 C55.93110049 0.00821909 62.7949533 0.00116768 69.65926981 -0.02085543 C75.55409769 -0.03901069 81.44878255 -0.04156721 87.34362936 -0.03110075 C90.86381412 -0.02486642 94.38377554 -0.02402825 97.90394592 -0.0372467 C101.82803808 -0.05095279 105.75159846 -0.03195329 109.67565918 -0.00964355 C110.84253769 -0.01774048 112.0094162 -0.0258374 113.21165466 -0.03417969 C114.27997025 -0.02290039 115.34828583 -0.01162109 116.44897461 0 C117.37663383 0.0015081 118.30429306 0.0030162 119.26006317 0.00457001 C122.56269301 0.6791401 123.73215066 1.81800145 125.7244873 4.50793457 C126.22785187 6.9723587 126.22785187 6.9723587 126.23242188 9.78344727 C126.24370117 10.85176285 126.25498047 11.92007843 126.26660156 13.02076721 C126.25850464 14.18764572 126.25040771 15.35452423 126.24206543 16.5567627 C126.24907471 17.78962509 126.25608398 19.02248749 126.26330566 20.29270935 C126.27789559 23.67107738 126.2744751 27.04846565 126.26178932 30.42677879 C126.25165809 33.96299934 126.26105533 37.49917819 126.26733398 41.03540039 C126.27461007 46.97374992 126.26502387 52.91190042 126.24597168 58.85021973 C126.22420278 65.71454776 126.2312542 72.57840056 126.2532773 79.44271708 C126.27143256 85.33754496 126.27398908 91.23222982 126.26352262 97.12707663 C126.2572883 100.64726138 126.25645012 104.1672228 126.26966858 107.68739319 C126.28337466 111.61148535 126.26437516 115.53504573 126.24206543 119.45910645 C126.25016235 120.62598495 126.25825928 121.79286346 126.26660156 122.99510193 C126.25532227 124.06341751 126.24404297 125.13173309 126.23242188 126.23242188 C126.23091377 127.1600811 126.22940567 128.08774033 126.22785187 129.04351044 C125.55328177 132.34614027 124.41442042 133.51559792 121.7244873 135.50793457 C119.26006317 136.01129913 119.26006317 136.01129913 116.44897461 136.01586914 C115.38065903 136.02714844 114.31234344 136.03842773 113.21165466 136.05004883 C112.04477615 136.0419519 110.87789764 136.03385498 109.67565918 136.0255127 C107.82636559 136.03602661 107.82636559 136.03602661 105.93971252 136.04675293 C102.5613445 136.06134285 99.18395623 136.05792236 95.80564308 136.04523659 C92.26942254 136.03510536 88.73324369 136.04450259 85.19702148 136.05078125 C79.25867196 136.05805734 73.32052145 136.04847113 67.38220215 136.02941895 C60.51787412 136.00765005 53.65402131 136.01470146 46.7897048 136.03672457 C40.89487692 136.05487983 35.00019206 136.05743635 29.10534525 136.04696989 C25.58516049 136.04073556 22.06519907 136.03989739 18.54502869 136.05311584 C14.62093653 136.06682193 10.69737615 136.04782243 6.77331543 136.0255127 C5.60643692 136.03360962 4.43955841 136.04170654 3.23731995 136.05004883 C2.16900436 136.03876953 1.10068878 136.02749023 0 136.01586914 C-1.39148884 136.01360699 -1.39148884 136.01360699 -2.81108856 136.01129913 C-6.1137184 135.33672904 -7.28317605 134.19786769 -9.2755127 131.50793457 C-9.77887726 129.04351044 -9.77887726 129.04351044 -9.78344727 126.23242188 C-9.79472656 125.16410629 -9.80600586 124.09579071 -9.81762695 122.99510193 C-9.80953003 121.82822342 -9.80143311 120.66134491 -9.79309082 119.45910645 C-9.8001001 118.22624405 -9.80710938 116.99338165 -9.81433105 115.72315979 C-9.82892098 112.34479176 -9.82550049 108.96740349 -9.81281471 105.58909035 C-9.80268348 102.0528698 -9.81208072 98.51669095 -9.81835938 94.98046875 C-9.82563547 89.04211922 -9.81604926 83.10396872 -9.79699707 77.16564941 C-9.77522817 70.30132138 -9.78227959 63.43746858 -9.80430269 56.57315207 C-9.82245795 50.67832418 -9.82501447 44.78363932 -9.81454802 38.88879251 C-9.80831369 35.36860776 -9.80747551 31.84864634 -9.82069397 28.32847595 C-9.83440005 24.40438379 -9.81540055 20.48082341 -9.79309082 16.5567627 C-9.80118774 15.38988419 -9.80928467 14.22300568 -9.81762695 13.02076721 C-9.80634766 11.95245163 -9.79506836 10.88413605 -9.78344727 9.78344727 C-9.78193916 8.85578804 -9.78043106 7.92812881 -9.77887726 6.9723587 C-8.66119154 1.50027773 -5.20892101 0.00846818 0 0 Z " fill="#0000FD" transform="translate(54.2755126953125,44.4920654296875)"/>
<path d="M0 0 C1.06831558 -0.0112793 2.13663116 -0.02255859 3.23731995 -0.03417969 C4.98763771 -0.0220343 4.98763771 -0.0220343 6.77331543 -0.00964355 C8.00617783 -0.01665283 9.23904022 -0.02366211 10.50926208 -0.03088379 C13.88763011 -0.04547371 17.26501838 -0.04205322 20.64333153 -0.02936745 C24.17955207 -0.01923622 27.71573092 -0.02863345 31.25195312 -0.03491211 C37.19030265 -0.0421882 43.12845315 -0.03260199 49.06677246 -0.0135498 C55.93110049 0.00821909 62.7949533 0.00116768 69.65926981 -0.02085543 C75.55409769 -0.03901069 81.44878255 -0.04156721 87.34362936 -0.03110075 C90.86381412 -0.02486642 94.38377554 -0.02402825 97.90394592 -0.0372467 C101.82803808 -0.05095279 105.75159846 -0.03195329 109.67565918 -0.00964355 C110.84253769 -0.01774048 112.0094162 -0.0258374 113.21165466 -0.03417969 C114.27997025 -0.02290039 115.34828583 -0.01162109 116.44897461 0 C117.37663383 0.0015081 118.30429306 0.0030162 119.26006317 0.00457001 C122.56269301 0.6791401 123.73215066 1.81800145 125.7244873 4.50793457 C126.22785187 6.9723587 126.22785187 6.9723587 126.23242188 9.78344727 C126.24370117 10.85176285 126.25498047 11.92007843 126.26660156 13.02076721 C126.25850464 14.18764572 126.25040771 15.35452423 126.24206543 16.5567627 C126.24907471 17.78962509 126.25608398 19.02248749 126.26330566 20.29270935 C126.27789559 23.67107738 126.2744751 27.04846565 126.26178932 30.42677879 C126.25165809 33.96299934 126.26105533 37.49917819 126.26733398 41.03540039 C126.27461007 46.97374992 126.26502387 52.91190042 126.24597168 58.85021973 C126.22420278 65.71454776 126.2312542 72.57840056 126.2532773 79.44271708 C126.27143256 85.33754496 126.27398908 91.23222982 126.26352262 97.12707663 C126.2572883 100.64726138 126.25645012 104.1672228 126.26966858 107.68739319 C126.28337466 111.61148535 126.26437516 115.53504573 126.24206543 119.45910645 C126.25016235 120.62598495 126.25825928 121.79286346 126.26660156 122.99510193 C126.25532227 124.06341751 126.24404297 125.13173309 126.23242188 126.23242188 C126.23091377 127.1600811 126.22940567 128.08774033 126.22785187 129.04351044 C125.55328177 132.34614027 124.41442042 133.51559792 121.7244873 135.50793457 C119.26006317 136.01129913 119.26006317 136.01129913 116.44897461 136.01586914 C115.38065903 136.02714844 114.31234344 136.03842773 113.21165466 136.05004883 C112.04477615 136.0419519 110.87789764 136.03385498 109.67565918 136.0255127 C107.82636559 136.03602661 107.82636559 136.03602661 105.93971252 136.04675293 C102.5613445 136.06134285 99.18395623 136.05792236 95.80564308 136.04523659 C92.26942254 136.03510536 88.73324369 136.04450259 85.19702148 136.05078125 C79.25867196 136.05805734 73.32052145 136.04847113 67.38220215 136.02941895 C60.51787412 136.00765005 53.65402131 136.01470146 46.7897048 136.03672457 C40.89487692 136.05487983 35.00019206 136.05743635 29.10534525 136.04696989 C25.58516049 136.04073556 22.06519907 136.03989739 18.54502869 136.05311584 C14.62093653 136.06682193 10.69737615 136.04782243 6.77331543 136.0255127 C5.60643692 136.03360962 4.43955841 136.04170654 3.23731995 136.05004883 C2.16900436 136.03876953 1.10068878 136.02749023 0 136.01586914 C-1.39148884 136.01360699 -1.39148884 136.01360699 -2.81108856 136.01129913 C-6.1137184 135.33672904 -7.28317605 134.19786769 -9.2755127 131.50793457 C-9.77887726 129.04351044 -9.77887726 129.04351044 -9.78344727 126.23242188 C-9.79472656 125.16410629 -9.80600586 124.09579071 -9.81762695 122.99510193 C-9.80953003 121.82822342 -9.80143311 120.66134491 -9.79309082 119.45910645 C-9.8001001 118.22624405 -9.80710938 116.99338165 -9.81433105 115.72315979 C-9.82892098 112.34479176 -9.82550049 108.96740349 -9.81281471 105.58909035 C-9.80268348 102.0528698 -9.81208072 98.51669095 -9.81835938 94.98046875 C-9.82563547 89.04211922 -9.81604926 83.10396872 -9.79699707 77.16564941 C-9.77522817 70.30132138 -9.78227959 63.43746858 -9.80430269 56.57315207 C-9.82245795 50.67832418 -9.82501447 44.78363932 -9.81454802 38.88879251 C-9.80831369 35.36860776 -9.80747551 31.84864634 -9.82069397 28.32847595 C-9.83440005 24.40438379 -9.81540055 20.48082341 -9.79309082 16.5567627 C-9.80118774 15.38988419 -9.80928467 14.22300568 -9.81762695 13.02076721 C-9.80634766 11.95245163 -9.79506836 10.88413605 -9.78344727 9.78344727 C-9.78193916 8.85578804 -9.78043106 7.92812881 -9.77887726 6.9723587 C-8.66119154 1.50027773 -5.20892101 0.00846818 0 0 Z M-8.2755127 4.50793457 C-8.86791083 6.84190664 -8.86791083 6.84190664 -8.76325989 9.51133728 C-8.7702037 10.54462158 -8.77714752 11.57790588 -8.78430176 12.64250183 C-8.76508667 14.34210808 -8.76508667 14.34210808 -8.7454834 16.0760498 C-8.7476738 17.26975189 -8.7498642 18.46345398 -8.75212097 19.69332886 C-8.75403837 22.96836815 -8.73811608 26.24273514 -8.71402001 29.51766849 C-8.69273543 32.94442419 -8.69331914 36.37117758 -8.69132996 39.79798889 C-8.68487979 45.55402349 -8.66362535 51.3098458 -8.63220215 57.0657959 C-8.5919339 64.4516179 -8.57451749 71.83730142 -8.56489277 79.22321987 C-8.55658522 85.57405368 -8.53934887 91.92485823 -8.51985526 98.27566648 C-8.51580797 99.63840182 -8.51206815 101.00113812 -8.5086329 102.36387515 C-8.49732866 106.84611447 -8.47715241 111.32824059 -8.45251465 115.8104248 C-8.44982574 116.94147141 -8.44713684 118.07251801 -8.44436646 119.23783875 C-8.43721115 120.27394287 -8.43005585 121.310047 -8.42268372 122.37754822 C-8.41841023 123.27700889 -8.41413675 124.17646955 -8.40973377 125.10318661 C-8.28307296 127.37248244 -7.91143941 129.33201744 -7.2755127 131.50793457 C-6.6155127 131.50793457 -5.9555127 131.50793457 -5.2755127 131.50793457 C-4.7805127 130.51793457 -4.7805127 130.51793457 -4.2755127 129.50793457 C-4.2755127 131.50793457 -4.2755127 131.50793457 -5.2755127 133.50793457 C35.3144873 133.50793457 75.9044873 133.50793457 117.7244873 133.50793457 C117.3944873 132.51793457 117.0644873 131.52793457 116.7244873 130.50793457 C117.3844873 130.50793457 118.0444873 130.50793457 118.7244873 130.50793457 C119.0544873 131.49793457 119.3844873 132.48793457 119.7244873 133.50793457 C120.3844873 133.17793457 121.0444873 132.84793457 121.7244873 132.50793457 C121.3944873 131.51793457 121.0644873 130.52793457 120.7244873 129.50793457 C120.7244873 128.51793457 120.7244873 127.52793457 120.7244873 126.50793457 C121.7144873 126.83793457 122.7044873 127.16793457 123.7244873 127.50793457 C123.7244873 87.57793457 123.7244873 47.64793457 123.7244873 6.50793457 C122.4044873 6.50793457 121.0844873 6.50793457 119.7244873 6.50793457 C120.3844873 5.18793457 121.0444873 3.86793457 121.7244873 2.50793457 C118.62976034 1.60420754 115.8579336 1.37824255 112.63879395 1.36749268 C111.61254913 1.36178253 110.58630432 1.35607239 109.52896118 1.35018921 C107.84877396 1.34851242 107.84877396 1.34851242 106.13464355 1.34680176 C104.95054901 1.34183685 103.76645447 1.33687195 102.54647827 1.33175659 C99.30274251 1.31966279 96.05904276 1.31219429 92.81528854 1.30774593 C90.78836541 1.30481157 88.76144789 1.30070618 86.73452759 1.29624176 C80.39137391 1.28257805 74.0482331 1.2729046 67.70506573 1.26903987 C60.38459912 1.26455487 53.06431883 1.24698199 45.74390888 1.21803927 C40.08266218 1.19643325 34.42146797 1.18633625 28.76018047 1.18499875 C25.37973039 1.18395039 21.99945573 1.17803569 18.61904907 1.16017914 C14.85066463 1.14318322 11.08273794 1.144983 7.31433105 1.15148926 C6.19420624 1.14227448 5.07408142 1.13305969 3.92001343 1.12356567 C2.89376862 1.12913483 1.8675238 1.13470398 0.81018066 1.14044189 C-0.08060684 1.13897533 -0.97139435 1.13750877 -1.88917542 1.13599777 C-4.85869908 1.59883056 -6.19855539 2.3374563 -8.2755127 4.50793457 Z " fill="#292DD8" transform="translate(54.2755126953125,44.4920654296875)"/>
<path d="M0 0 C40.26 0 80.52 0 122 0 C122 0.33 122 0.66 122 1 C83.06 1.33 44.12 1.66 4 2 C3.67 3.65 3.34 5.3 3 7 C2.34 7 1.68 7 1 7 C1 6.34 1 5.68 1 5 C0.01 4.67 -0.98 4.34 -2 4 C-1.34 2.68 -0.68 1.36 0 0 Z " fill="#0000E7" transform="translate(50,46)"/>
<path d="M0 0 C2.375 -0.125 2.375 -0.125 5 0 C7 2 7 2 7.125 4.625 C7.08375 5.40875 7.0425 6.1925 7 7 C6.67 6.34 6.34 5.68 6 5 C4.68 5 3.36 5 2 5 C2.33 4.01 2.66 3.02 3 2 C2.01 1.34 1.02 0.68 0 0 Z " fill="#0C0DD6" transform="translate(172,46)"/>
</svg>
